<svg id="svg" xmlns="http://www.w3.org/2000/svg" xmlns:xlink="http://www.w3.org/1999/xlink" width="400" height="400" viewBox="0, 0, 400,400"><g id="svgg"><path id="path0" d="M179.259 36.332 C 175.010 38.823,175.156 41.298,180.093 50.422 C 186.574 62.400,196.091 79.995,197.912 83.364 C 198.857 85.112,199.630 86.654,199.630 86.790 C 199.630 86.926,186.441 87.037,170.321 87.037 C 141.847 87.037,140.980 87.058,139.837 87.764 C 138.455 88.618,137.929 89.405,131.410 100.370 C 114.209 129.301,113.970 129.685,113.518 129.189 C 113.275 128.922,108.618 121.287,103.171 112.222 C 92.907 95.144,92.094 93.954,90.104 93.103 C 87.374 91.934,83.065 92.951,81.531 95.124 C 80.913 96.001,62.838 126.717,42.594 161.296 C 38.658 168.019,32.108 179.178,28.039 186.094 C 23.969 193.011,20.395 199.256,20.095 199.972 C 18.852 202.950,19.190 203.779,28.035 219.444 C 32.521 227.389,41.027 242.472,46.937 252.963 C 85.604 321.597,81.422 314.374,83.159 315.534 C 85.929 317.385,90.213 316.856,92.457 314.388 C 93.158 313.617,98.818 303.998,110.185 284.259 C 112.180 280.796,114.020 277.658,114.276 277.285 C 114.765 276.572,114.295 275.822,131.969 305.556 C 137.113 314.209,138.582 316.321,140.089 317.233 C 141.256 317.938,142.262 317.969,169.903 318.148 L 198.510 318.333 193.122 327.963 C 176.706 357.299,177.628 355.530,177.488 357.957 C 177.324 360.808,178.389 363.032,180.680 364.625 L 182.286 365.741 241.050 365.842 C 305.984 365.954,301.594 366.110,303.960 363.607 C 304.583 362.947,312.256 350.324,321.011 335.556 C 329.766 320.787,340.143 303.287,344.071 296.667 C 353.204 281.271,358.606 272.155,362.166 266.127 C 366.153 259.375,366.032 255.675,361.726 252.690 L 360.249 251.667 337.532 251.566 C 325.038 251.510,314.815 251.382,314.815 251.280 C 314.815 251.179,318.172 245.308,322.276 238.233 C 342.506 203.358,340.843 206.436,341.028 203.527 C 341.283 199.517,341.200 199.351,327.228 175.926 L 314.085 153.889 337.320 153.704 C 364.124 153.490,362.763 153.707,364.998 149.291 C 366.693 145.940,369.575 151.525,335.751 92.593 C 330.315 83.120,321.103 67.037,315.281 56.852 C 304.089 37.272,303.825 36.860,301.956 36.063 C 299.671 35.090,180.935 35.350,179.259 36.332 M306.349 65.281 C 316.684 83.317,326.888 101.107,341.637 126.804 C 346.065 134.519,349.776 141.061,349.883 141.341 C 350.048 141.772,346.693 141.852,328.563 141.852 L 307.048 141.852 306.158 140.463 C 305.669 139.699,300.809 131.574,295.359 122.407 C 289.909 113.241,283.370 102.241,280.827 97.963 C 273.471 85.590,278.525 87.037,242.672 87.037 L 213.462 87.037 204.990 71.389 C 192.950 49.153,192.222 47.796,192.222 47.591 C 192.222 47.490,215.597 47.409,244.167 47.410 L 296.111 47.413 306.349 65.281 M220.521 125.145 C 232.190 146.707,234.876 151.414,236.053 152.367 L 237.476 153.519 268.831 153.626 L 300.185 153.733 312.407 174.312 C 319.130 185.630,324.843 195.290,325.104 195.779 L 325.579 196.667 268.573 196.667 L 211.566 196.667 209.986 193.981 C 209.117 192.505,204.290 184.380,199.259 175.926 C 194.229 167.472,186.644 154.722,182.404 147.593 C 173.262 132.217,163.658 116.100,158.100 106.806 C 155.893 103.114,153.982 99.821,153.855 99.489 C 153.641 98.932,155.731 98.892,180.017 98.979 L 206.412 99.074 220.521 125.145 M272.441 107.140 C 275.108 111.667,280.733 121.153,284.941 128.221 C 289.150 135.289,292.593 141.247,292.593 141.462 C 292.593 141.731,284.943 141.852,267.854 141.852 L 243.115 141.852 235.563 127.870 C 231.410 120.181,226.209 110.582,224.006 106.540 C 221.803 102.498,220.000 99.123,220.000 99.040 C 220.000 98.957,230.708 98.893,243.796 98.899 L 267.593 98.909 272.441 107.140 M158.617 130.926 C 176.522 161.055,189.438 182.759,196.166 194.017 C 198.886 198.569,201.111 202.371,201.111 202.466 C 201.111 202.561,199.552 205.254,197.647 208.449 C 195.742 211.645,186.050 227.926,176.110 244.630 C 166.170 261.333,154.630 280.723,150.465 287.717 C 143.782 298.939,142.838 300.354,142.433 299.754 C 142.180 299.380,140.638 296.824,139.007 294.074 C 137.375 291.324,132.820 283.665,128.884 277.053 C 124.948 270.442,121.733 264.858,121.738 264.646 C 121.743 264.433,126.489 256.093,132.284 246.111 C 157.494 202.690,156.057 205.283,156.228 202.911 C 156.418 200.285,156.710 200.872,148.357 187.059 C 124.445 147.516,121.046 141.772,121.203 141.171 C 121.296 140.813,125.591 133.445,130.747 124.797 C 135.903 116.150,140.696 108.098,141.398 106.906 C 143.025 104.140,141.125 101.490,158.617 130.926 M97.924 126.544 C 102.733 134.523,106.667 141.245,106.667 141.483 C 106.667 141.721,103.725 146.859,100.129 152.902 C 96.533 158.945,88.927 171.722,83.227 181.296 C 71.601 200.823,71.710 200.613,71.937 202.977 C 72.138 205.071,72.124 205.042,77.957 214.815 C 80.571 219.194,86.824 229.694,91.852 238.148 C 96.880 246.602,102.506 256.052,104.354 259.149 L 107.713 264.779 99.372 279.149 C 94.784 287.052,90.204 294.977,89.195 296.759 C 88.186 298.542,87.303 300.000,87.233 300.000 C 87.114 300.000,85.926 297.913,83.226 292.963 C 82.615 291.843,81.994 290.759,81.845 290.556 C 81.599 290.218,56.324 245.417,48.414 231.296 C 46.589 228.037,42.195 220.241,38.650 213.973 L 32.205 202.575 36.049 196.010 C 38.163 192.399,42.144 185.611,44.895 180.926 C 61.167 153.212,67.060 143.169,76.574 126.931 L 87.161 108.863 88.172 110.450 C 88.727 111.323,93.116 118.565,97.924 126.544 M127.620 175.741 C 134.724 187.556,141.261 198.427,142.146 199.899 L 143.756 202.576 130.715 225.084 C 113.941 254.033,114.786 252.618,114.417 252.390 C 114.242 252.282,110.903 246.826,106.995 240.264 C 103.088 233.702,96.471 222.593,92.291 215.576 C 88.111 208.560,84.696 202.643,84.702 202.428 C 84.708 202.213,88.795 195.204,93.784 186.852 C 98.773 178.500,105.317 167.527,108.327 162.468 C 112.748 155.035,113.885 153.364,114.252 153.764 C 114.501 154.037,120.517 163.926,127.620 175.741 M325.556 208.660 C 325.556 208.737,320.013 218.362,313.239 230.049 L 300.922 251.296 269.443 251.481 C 235.103 251.683,236.972 251.560,234.938 253.761 C 234.496 254.239,227.764 266.046,219.977 280.000 C 212.190 293.954,205.628 305.580,205.394 305.836 C 205.058 306.203,199.510 306.281,179.174 306.206 L 153.379 306.111 165.074 286.481 C 171.507 275.685,182.019 258.019,188.435 247.222 C 204.314 220.503,210.364 210.339,210.979 209.352 L 211.499 208.519 268.527 208.519 C 299.893 208.519,325.556 208.582,325.556 208.660 M293.704 263.530 C 293.704 263.697,289.177 271.561,271.806 301.571 L 269.074 306.290 244.167 306.293 C 229.439 306.295,219.259 306.158,219.259 305.959 C 219.259 305.774,219.951 304.401,220.797 302.908 C 222.516 299.874,230.495 285.621,236.938 274.074 C 239.268 269.898,241.584 265.773,242.084 264.907 L 242.994 263.333 268.349 263.333 C 282.294 263.333,293.704 263.422,293.704 263.530 M348.929 265.093 C 348.344 266.060,340.406 279.435,331.288 294.815 C 322.170 310.194,311.538 328.111,307.662 334.630 C 303.786 341.148,299.621 348.190,298.407 350.278 L 296.199 354.074 244.175 354.074 L 192.152 354.074 193.065 352.500 C 193.568 351.634,196.069 347.176,198.624 342.593 C 201.179 338.009,205.273 330.676,207.723 326.296 L 212.177 318.333 243.218 318.148 C 277.445 317.944,275.632 318.077,277.323 315.654 C 277.948 314.759,288.486 296.678,293.893 287.222 C 297.073 281.662,306.707 265.056,307.268 264.167 L 307.795 263.333 328.894 263.333 L 349.993 263.333 348.929 265.093 " stroke="none" fill="#000000" fill-rule="evenodd"></path></g></svg>