<svg id="svg" version="1.1" xmlns="http://www.w3.org/2000/svg" xmlns:xlink="http://www.w3.org/1999/xlink" width="400" height="400" viewBox="0, 0, 400,400"><g id="svgg"><path id="path0" d="M190.313 65.100 C 189.976 65.485,189.573 66.514,189.416 67.386 C 189.026 69.560,188.387 70.656,186.101 73.071 C 184.489 74.773,183.982 75.687,183.249 78.211 C 182.271 81.574,181.117 83.077,179.219 83.456 C 177.528 83.794,177.342 84.178,177.041 87.945 C 176.680 92.469,175.421 94.912,173.200 95.400 C 171.401 95.795,170.928 96.709,170.666 100.295 C 170.333 104.867,169.256 106.651,166.022 107.991 C 164.889 108.460,164.010 110.168,164.002 111.916 C 163.998 112.956,162.352 115.619,160.599 117.422 C 159.610 118.440,158.799 119.302,158.798 119.337 C 158.658 123.146,157.169 126.006,154.839 126.938 C 152.808 127.750,152.750 127.867,152.128 132.380 C 151.531 136.709,150.928 137.817,148.529 139.000 C 145.900 140.297,145.732 140.560,145.433 143.863 C 145.114 147.382,144.083 149.730,142.495 150.551 C 140.716 151.471,139.983 152.569,139.357 155.251 C 138.692 158.104,136.885 161.205,135.438 161.979 C 134.541 162.460,133.200 165.100,133.200 166.387 C 133.200 168.020,131.446 170.481,129.680 171.327 L 127.857 172.200 127.148 175.929 C 126.159 181.139,125.619 181.946,122.024 183.593 C 121.280 183.934,120.922 185.165,120.600 188.486 C 120.296 191.615,119.256 193.463,117.223 194.483 C 115.174 195.512,114.882 195.951,114.031 199.280 C 113.169 202.648,111.716 205.189,110.182 206.010 C 109.541 206.353,109.039 207.117,108.762 208.170 C 107.675 212.315,107.065 213.364,105.197 214.303 C 102.785 215.515,102.554 215.914,102.236 219.425 C 101.808 224.155,101.355 224.932,98.194 226.364 C 95.934 227.387,95.741 227.764,95.450 231.729 C 95.154 235.755,94.476 237.385,92.699 238.335 C 90.625 239.444,89.738 240.664,89.253 243.077 C 88.613 246.263,87.333 248.706,85.768 249.729 C 84.405 250.619,83.543 252.162,82.825 255.000 C 82.252 257.264,81.491 258.176,79.673 258.776 L 78.089 259.299 77.243 263.272 C 76.089 268.692,74.833 270.800,72.760 270.800 C 70.950 270.800,69.814 281.159,70.873 288.000 L 71.400 291.400 73.800 291.657 C 76.909 291.989,141.807 291.986,145.128 291.653 C 147.641 291.401,147.661 291.390,148.557 289.606 C 149.722 287.285,151.114 286.513,155.648 285.674 L 159.353 284.987 160.377 282.994 C 161.373 281.053,162.189 280.431,165.616 279.000 C 166.396 278.674,166.667 278.117,167.075 276.000 C 167.350 274.570,167.763 272.742,167.993 271.937 C 168.406 270.486,170.765 268.000,171.728 268.000 C 172.380 268.000,173.432 266.169,173.796 264.400 C 174.379 261.569,176.716 258.000,177.987 258.000 C 178.173 258.000,178.737 256.439,179.241 254.531 C 180.277 250.612,181.066 249.479,183.618 248.255 C 185.387 247.406,185.402 247.382,185.724 244.800 C 186.413 239.271,187.421 237.404,190.194 236.519 C 191.496 236.103,191.563 235.937,192.560 230.697 C 193.230 227.173,194.369 225.266,195.998 224.940 C 197.157 224.709,197.791 223.647,198.831 220.200 C 199.465 218.097,199.948 217.440,201.894 216.030 C 203.406 214.935,203.576 214.611,204.347 211.339 C 205.295 207.317,205.982 206.214,208.433 204.781 L 210.183 203.757 210.794 199.957 C 211.459 195.822,212.215 194.281,214.078 193.262 C 216.470 191.953,216.895 191.383,217.626 188.505 C 218.281 185.925,220.101 182.400,220.778 182.400 C 221.585 182.400,222.759 180.578,223.534 178.120 C 224.509 175.034,225.479 173.739,227.111 173.350 C 228.897 172.923,229.073 172.560,229.363 168.716 C 229.750 163.594,230.681 161.900,233.600 161.010 C 235.653 160.384,236.000 159.712,236.000 156.358 C 236.000 150.974,237.749 145.706,240.329 143.316 C 241.335 142.385,241.408 142.075,241.535 138.217 L 241.670 134.109 239.829 132.384 C 237.473 130.176,236.504 127.247,235.866 120.402 L 235.400 115.403 233.800 114.662 C 231.220 113.466,230.481 112.506,229.392 108.938 C 228.602 106.347,228.038 105.273,226.855 104.104 C 225.242 102.509,224.268 100.693,223.796 98.400 C 223.435 96.648,222.382 94.800,221.744 94.800 C 219.729 94.800,217.728 91.447,217.368 87.467 C 217.068 84.159,216.901 83.897,214.271 82.600 C 211.960 81.461,211.317 80.304,210.601 76.000 C 210.186 73.509,209.750 72.062,209.336 71.800 C 206.531 70.025,206.142 69.624,205.382 67.726 C 204.003 64.275,204.311 64.400,197.213 64.400 C 191.723 64.400,190.846 64.489,190.313 65.100 M271.086 200.209 C 270.473 200.746,268.983 201.473,267.774 201.825 C 265.190 202.576,264.588 203.353,264.259 206.365 C 263.910 209.558,262.548 212.010,260.500 213.130 C 259.502 213.676,258.727 214.419,258.623 214.930 C 257.627 219.819,257.518 220.060,255.183 222.483 C 253.150 224.593,252.781 225.229,252.189 227.646 C 251.376 230.962,250.494 232.174,248.049 233.332 L 246.200 234.207 245.881 237.204 C 245.288 242.779,244.993 243.319,241.216 245.728 C 239.934 246.545,239.798 246.832,239.363 249.646 C 238.685 254.028,236.812 257.200,234.901 257.200 C 234.465 257.200,233.542 259.002,232.600 261.696 C 231.922 263.634,230.561 265.044,228.987 265.439 C 228.220 265.631,227.993 266.214,227.266 269.838 C 226.333 274.496,225.155 276.571,223.200 277.000 C 221.558 277.361,221.337 277.822,221.071 281.446 C 220.807 285.057,221.142 285.695,223.865 286.769 C 224.804 287.139,225.348 287.774,225.972 289.224 C 226.435 290.299,227.168 291.369,227.601 291.601 C 228.694 292.185,322.188 291.972,322.777 291.383 C 323.231 290.929,324.835 285.495,324.898 284.200 C 324.919 283.760,324.601 280.793,324.191 277.607 C 323.386 271.357,323.364 271.308,320.422 269.462 C 318.346 268.160,317.633 266.594,317.296 262.599 C 317.084 260.081,316.830 259.006,316.400 258.807 C 311.678 256.624,311.311 256.132,310.552 250.960 C 309.957 246.908,309.880 246.766,307.611 245.508 C 306.384 244.828,305.775 243.750,304.251 239.563 C 303.853 238.470,303.185 237.513,302.604 237.202 C 301.170 236.435,299.704 233.986,298.963 231.119 C 298.003 227.406,297.687 226.937,295.408 225.821 C 292.862 224.576,292.503 223.847,291.989 218.896 C 291.770 216.785,291.548 215.023,291.496 214.981 C 291.443 214.938,290.556 214.536,289.525 214.086 C 287.189 213.066,286.282 211.434,285.587 207.000 C 285.004 203.276,284.824 202.969,283.025 202.631 C 282.285 202.492,280.875 201.951,279.892 201.429 C 278.910 200.906,277.047 200.269,275.753 200.012 C 274.459 199.755,273.130 199.475,272.800 199.389 C 272.470 199.303,271.699 199.672,271.086 200.209 " stroke="none" fill="#fcfafa" fill-rule="evenodd"></path><path id="path1" d="M192.053 60.450 C 188.252 61.082,186.045 62.832,185.987 65.260 C 185.965 66.184,184.949 67.209,183.149 68.122 C 180.833 69.297,180.054 70.791,179.753 74.636 C 179.456 78.433,178.985 79.298,176.873 79.931 C 174.662 80.593,173.729 82.588,173.314 87.538 L 173.000 91.276 171.033 91.938 C 168.491 92.793,167.757 93.853,166.752 98.118 C 165.972 101.428,165.825 101.700,163.978 103.258 C 162.633 104.391,161.823 105.477,161.370 106.751 C 161.009 107.768,160.542 109.068,160.333 109.640 C 160.124 110.211,159.164 111.235,158.199 111.915 C 155.905 113.532,155.299 114.805,154.821 119.007 C 154.423 122.513,153.977 123.600,152.935 123.600 C 150.057 123.600,148.655 125.728,147.986 131.113 C 147.534 134.751,147.397 135.200,146.737 135.200 C 144.400 135.200,142.605 137.371,141.807 141.165 C 141.301 143.572,140.970 144.205,139.348 145.873 C 137.387 147.889,136.024 150.358,136.009 151.920 C 135.994 153.487,134.853 155.157,133.232 155.984 C 131.027 157.109,130.070 158.883,129.754 162.433 C 129.423 166.158,129.147 166.680,127.026 167.589 C 124.893 168.503,123.756 170.639,123.400 174.400 C 122.999 178.631,122.958 178.721,121.172 179.256 C 119.391 179.789,117.734 181.472,117.356 183.131 C 116.381 187.419,115.928 188.358,113.938 190.219 C 111.917 192.110,110.800 194.028,110.800 195.607 C 110.800 196.988,109.704 198.671,108.197 199.602 C 106.323 200.760,105.291 202.887,104.970 206.253 C 104.645 209.645,104.127 210.515,102.062 211.134 C 99.244 211.978,98.628 213.252,98.082 219.358 C 97.887 221.538,97.614 222.613,97.200 222.829 C 96.870 223.002,95.773 223.519,94.762 223.978 C 92.532 224.989,92.066 225.898,91.585 230.176 C 91.200 233.603,91.346 233.368,88.020 235.923 C 87.264 236.503,86.654 237.468,86.376 238.523 C 85.636 241.323,84.850 242.567,83.290 243.402 C 81.373 244.428,80.089 246.974,79.756 250.404 C 79.451 253.559,78.863 254.585,77.013 255.196 C 75.015 255.855,73.739 258.196,73.413 261.800 C 73.018 266.153,72.962 266.286,71.300 266.819 C 68.085 267.852,67.423 269.140,66.584 276.005 C 66.051 280.371,65.753 281.591,64.906 282.871 L 63.876 284.427 64.911 285.513 C 65.551 286.185,66.201 287.615,66.611 289.256 C 68.400 296.410,64.392 295.800,109.600 295.800 C 153.147 295.800,150.069 296.045,151.894 292.427 C 152.988 290.258,153.350 290.014,155.480 290.006 C 159.954 289.990,163.131 288.432,163.988 285.835 C 164.517 284.235,165.395 283.404,166.951 283.033 C 168.827 282.586,170.181 280.863,171.142 277.700 C 171.645 276.044,172.245 274.800,172.542 274.800 C 173.811 274.800,176.234 270.620,176.688 267.648 C 177.015 265.506,177.883 264.296,179.734 263.400 C 181.921 262.342,182.696 260.856,183.299 256.565 L 183.800 253.000 185.893 252.000 C 188.943 250.543,189.290 249.828,190.568 242.358 C 190.776 241.142,191.060 240.819,192.377 240.302 C 193.916 239.697,195.600 237.358,195.600 235.824 C 195.600 234.344,196.940 231.996,198.215 231.244 C 199.848 230.281,201.080 227.975,201.799 224.535 C 202.438 221.482,202.760 221.032,205.024 220.030 C 207.424 218.969,208.119 217.483,208.385 212.842 C 208.614 208.844,208.704 208.680,210.934 208.208 C 212.829 207.807,213.841 206.282,214.808 202.369 C 215.649 198.966,215.806 198.674,217.636 197.131 C 218.976 196.001,219.773 194.928,220.222 193.649 C 221.531 189.918,221.978 189.197,223.413 188.513 C 225.237 187.643,226.320 185.279,226.650 181.444 C 226.948 177.981,227.457 177.089,229.484 176.482 C 232.243 175.655,232.858 174.597,233.296 169.915 C 233.715 165.453,234.108 164.638,236.031 164.254 C 238.580 163.744,239.993 161.073,239.998 156.760 C 240.001 153.749,240.546 152.382,242.190 151.259 C 247.104 147.905,246.940 127.555,241.979 124.989 C 240.412 124.179,240.149 123.409,239.795 118.590 C 239.413 113.387,237.874 110.808,235.149 110.801 C 233.960 110.799,233.416 109.534,233.154 106.165 C 232.839 102.115,232.021 100.504,229.719 99.400 C 227.907 98.531,227.156 97.359,226.442 94.290 C 225.915 92.024,224.387 89.472,223.023 88.578 C 222.086 87.965,221.189 85.865,220.596 82.899 C 220.271 81.272,218.495 79.457,216.738 78.955 L 215.400 78.573 214.737 74.529 C 213.984 69.933,213.370 68.742,211.277 67.815 C 208.775 66.708,208.607 66.554,208.374 65.156 C 207.649 60.801,201.175 58.935,192.053 60.450 M201.686 61.997 C 203.974 62.001,205.812 63.412,207.450 66.420 C 208.040 67.505,209.187 68.814,210.043 69.381 C 212.013 70.685,212.702 72.060,213.041 75.367 C 213.348 78.367,214.036 79.507,216.461 81.038 C 218.172 82.118,218.977 83.608,220.369 88.268 C 221.077 90.640,221.448 91.268,222.513 91.896 C 223.891 92.710,224.854 94.348,225.592 97.132 C 225.927 98.395,226.683 99.478,228.383 101.132 C 230.584 103.272,230.743 103.558,231.211 106.200 C 231.873 109.932,232.462 110.970,234.785 112.506 C 237.418 114.246,237.854 115.157,238.119 119.465 C 238.346 123.170,238.822 124.623,240.585 127.000 C 244.765 132.635,244.972 143.389,241.005 148.794 C 238.912 151.644,238.400 153.187,238.400 156.640 L 238.400 159.705 236.624 161.353 C 235.647 162.259,234.186 163.550,233.377 164.221 C 231.927 165.425,231.903 165.494,231.647 169.117 C 231.362 173.142,231.006 173.797,228.383 175.114 C 226.659 175.979,225.200 178.131,225.200 179.809 C 225.200 181.902,224.076 184.487,222.422 186.200 C 221.572 187.080,220.280 189.037,219.551 190.548 C 218.822 192.060,217.697 193.770,217.051 194.348 C 216.405 194.927,215.486 195.766,215.008 196.212 C 214.408 196.773,213.909 198.121,213.397 200.561 C 212.616 204.283,212.311 204.748,208.703 207.734 C 207.460 208.764,207.273 209.204,206.690 212.496 L 206.047 216.123 203.506 218.562 C 201.647 220.346,200.826 221.473,200.448 222.764 C 199.872 224.724,198.488 227.098,197.391 228.006 C 196.595 228.665,194.402 233.057,194.398 234.000 C 194.394 235.026,192.683 237.443,190.740 239.171 C 188.922 240.786,188.868 240.903,188.396 244.230 C 187.874 247.903,187.676 248.210,183.688 251.494 C 182.252 252.676,182.059 253.074,181.455 256.094 C 180.814 259.300,180.723 259.468,178.446 261.646 C 176.246 263.750,175.681 264.749,175.032 267.685 C 174.900 268.281,173.921 269.641,172.855 270.707 C 171.301 272.261,170.706 273.273,169.845 275.822 C 168.566 279.616,168.394 279.857,165.705 281.661 C 164.553 282.433,163.095 283.771,162.464 284.633 C 160.566 287.227,159.965 287.568,156.412 288.070 L 153.087 288.541 150.402 291.225 L 147.718 293.910 141.159 294.193 C 126.393 294.831,72.718 294.272,71.400 293.466 C 68.832 291.896,67.104 286.730,67.673 282.320 C 67.834 281.066,68.155 278.197,68.387 275.944 C 68.861 271.322,69.230 270.555,71.918 268.612 C 74.373 266.837,74.725 266.190,75.011 262.928 C 75.370 258.824,75.424 258.702,77.553 257.261 C 79.701 255.807,80.716 254.150,81.863 250.225 C 82.333 248.617,83.108 247.229,84.266 245.926 C 85.206 244.867,86.586 242.679,87.333 241.063 C 88.232 239.118,89.170 237.758,90.109 237.042 C 91.920 235.661,92.670 234.052,93.019 230.800 C 93.371 227.509,94.333 225.907,96.596 224.844 C 99.038 223.696,99.572 222.704,99.870 218.758 C 100.150 215.066,99.792 215.626,104.650 211.287 C 105.588 210.449,106.164 209.305,106.958 206.700 C 107.732 204.164,108.434 202.747,109.566 201.439 C 110.419 200.454,111.540 198.526,112.058 197.154 C 112.935 194.831,114.854 192.344,116.496 191.400 C 116.939 191.146,117.540 189.645,118.149 187.276 C 119.144 183.403,119.881 182.233,122.252 180.768 C 124.219 179.552,124.801 178.318,125.074 174.775 L 125.322 171.561 127.816 169.371 C 130.433 167.073,130.634 166.725,131.956 162.176 C 132.634 159.843,133.051 159.132,134.353 158.086 C 135.524 157.145,136.221 156.079,137.065 153.944 C 137.785 152.119,138.832 150.398,139.929 149.234 C 141.321 147.758,141.845 146.757,142.613 144.112 C 143.883 139.737,144.531 138.580,146.362 137.424 C 148.911 135.815,149.484 134.775,149.802 131.178 C 150.122 127.560,151.072 125.947,153.473 124.944 C 155.185 124.229,155.983 122.948,156.624 119.888 C 157.373 116.318,157.782 115.420,159.537 113.503 C 160.395 112.566,161.580 110.770,162.172 109.512 C 162.763 108.253,163.804 106.723,164.485 106.112 C 167.468 103.433,167.493 103.392,168.016 100.366 C 168.635 96.779,169.197 95.569,170.815 94.338 C 174.841 91.278,174.811 91.327,175.069 87.400 C 175.328 83.462,175.592 82.937,178.114 81.334 C 179.729 80.308,181.196 78.276,181.199 77.062 C 181.203 74.796,182.571 71.756,184.302 70.167 C 185.286 69.263,186.656 67.474,187.346 66.191 C 189.336 62.491,192.046 61.360,197.800 61.830 C 198.900 61.920,200.649 61.995,201.686 61.997 M270.073 193.182 C 269.316 193.661,268.422 194.747,267.993 195.711 C 267.177 197.543,266.444 198.151,264.543 198.569 C 262.778 198.956,261.389 200.647,260.621 203.342 C 260.150 204.993,259.444 206.233,258.229 207.542 C 256.145 209.789,255.309 211.351,254.958 213.658 C 254.587 216.092,253.784 217.272,251.866 218.200 C 249.615 219.290,248.787 220.895,248.524 224.688 C 248.294 227.984,247.626 229.599,246.491 229.601 C 243.702 229.608,241.986 232.435,241.650 237.577 L 241.400 241.400 240.106 241.525 C 238.479 241.682,236.551 243.549,236.211 245.299 C 235.736 247.733,234.699 249.581,233.363 250.369 C 231.751 251.320,230.518 253.638,229.801 257.065 C 229.171 260.073,228.811 260.602,226.985 261.205 C 224.869 261.903,223.954 263.794,223.439 268.535 L 223.000 272.580 220.661 273.790 C 217.594 275.377,217.258 276.110,217.157 281.438 C 217.046 287.346,218.583 290.392,221.681 290.399 C 222.096 290.399,222.660 291.065,223.123 292.100 C 224.067 294.209,224.951 294.998,227.000 295.558 C 228.873 296.070,315.155 296.140,320.935 295.634 C 324.439 295.327,326.322 294.288,326.386 292.626 C 326.435 291.347,328.149 288.877,329.403 288.279 C 330.858 287.585,332.396 285.532,332.399 284.279 C 332.405 281.366,331.051 277.748,329.361 276.159 C 327.878 274.765,327.521 274.109,326.984 271.792 C 326.174 268.301,325.445 266.908,323.589 265.307 C 322.331 264.222,321.977 263.547,321.390 261.107 C 320.330 256.703,319.252 255.051,317.136 254.586 C 315.494 254.225,314.931 253.067,314.621 249.408 C 314.211 244.574,313.306 243.146,309.959 242.049 L 308.517 241.577 308.280 238.214 C 307.982 233.989,307.016 231.931,304.803 230.801 C 303.100 229.933,302.265 228.671,301.841 226.331 C 301.585 224.916,300.558 223.769,297.908 221.938 C 297.142 221.409,296.768 220.464,296.051 217.253 C 295.040 212.725,294.512 211.869,291.979 210.653 L 290.200 209.800 289.752 205.865 C 289.211 201.110,288.678 200.248,285.259 198.598 C 283.365 197.685,282.556 197.019,281.884 195.821 C 280.162 192.752,273.208 191.198,270.073 193.182 M275.567 195.243 C 277.765 195.614,278.465 195.940,279.800 197.217 C 280.680 198.059,282.300 199.196,283.400 199.746 C 286.950 201.517,288.400 204.340,288.400 209.475 C 288.400 209.595,289.635 210.887,291.144 212.346 L 293.888 215.000 294.527 218.556 C 295.203 222.319,295.904 223.506,298.136 224.667 C 298.945 225.088,299.674 226.140,300.668 228.322 C 301.436 230.007,302.847 232.222,303.802 233.244 C 305.419 234.972,306.800 238.082,306.800 239.995 C 306.800 240.947,308.546 243.153,310.174 244.260 C 312.054 245.537,312.638 246.809,312.978 250.360 C 313.304 253.782,313.756 254.625,315.997 256.000 C 318.294 257.409,319.405 259.291,319.994 262.766 C 320.507 265.798,320.524 265.825,323.530 268.526 C 324.305 269.222,324.933 270.291,325.174 271.326 C 325.390 272.247,326.444 275.627,327.518 278.839 L 329.470 284.678 328.001 286.253 C 327.193 287.119,326.204 288.721,325.804 289.814 C 324.034 294.641,328.072 294.302,271.680 294.358 C 223.286 294.405,227.083 294.639,224.802 291.463 C 224.113 290.504,222.763 289.164,221.802 288.487 C 219.047 286.545,218.680 285.722,218.767 281.688 C 218.853 277.710,220.280 274.874,222.225 274.813 C 223.670 274.768,224.855 272.482,225.058 269.350 C 225.307 265.491,225.696 264.647,227.942 263.103 C 229.377 262.115,229.993 261.261,231.281 258.472 C 232.150 256.592,233.558 254.262,234.409 253.295 C 235.260 252.328,236.261 250.606,236.633 249.468 C 237.673 246.290,238.704 244.479,239.905 243.722 C 242.392 242.156,243.067 240.984,243.340 237.758 C 243.648 234.107,244.245 233.004,246.840 231.289 C 249.056 229.825,249.697 228.670,250.444 224.800 C 250.900 222.436,251.152 221.996,253.226 219.949 C 254.601 218.592,255.705 217.083,256.007 216.149 C 256.786 213.743,257.787 211.945,259.510 209.860 C 260.592 208.551,261.359 207.030,261.932 205.055 C 262.860 201.862,263.583 200.999,266.600 199.483 C 267.700 198.931,269.340 197.651,270.245 196.639 C 272.079 194.590,271.925 194.630,275.567 195.243 " stroke="none" fill="#ec7474" fill-rule="evenodd"></path><path id="path2" d="M193.274 61.975 C 190.131 62.358,188.958 63.193,187.346 66.191 C 186.656 67.474,185.286 69.263,184.302 70.167 C 182.571 71.756,181.203 74.796,181.199 77.062 C 181.196 78.276,179.729 80.308,178.114 81.334 C 175.592 82.937,175.328 83.462,175.069 87.400 C 174.811 91.327,174.841 91.278,170.815 94.338 C 169.197 95.569,168.635 96.779,168.016 100.366 C 167.493 103.392,167.468 103.433,164.485 106.112 C 163.804 106.723,162.763 108.253,162.172 109.512 C 161.580 110.770,160.395 112.566,159.537 113.503 C 157.782 115.420,157.373 116.318,156.624 119.888 C 155.983 122.948,155.185 124.229,153.473 124.944 C 151.072 125.947,150.122 127.560,149.802 131.178 C 149.484 134.775,148.911 135.815,146.362 137.424 C 144.531 138.580,143.883 139.737,142.613 144.112 C 141.845 146.757,141.321 147.758,139.929 149.234 C 138.832 150.398,137.785 152.119,137.065 153.944 C 136.221 156.079,135.524 157.145,134.353 158.086 C 133.051 159.132,132.634 159.843,131.956 162.176 C 130.634 166.725,130.433 167.073,127.816 169.371 L 125.322 171.561 125.074 174.775 C 124.801 178.318,124.219 179.552,122.252 180.768 C 119.881 182.233,119.144 183.403,118.149 187.276 C 117.540 189.645,116.939 191.146,116.496 191.400 C 114.854 192.344,112.935 194.831,112.058 197.154 C 111.540 198.526,110.419 200.454,109.566 201.439 C 108.434 202.747,107.732 204.164,106.958 206.700 C 106.164 209.305,105.588 210.449,104.650 211.287 C 99.792 215.626,100.150 215.066,99.870 218.758 C 99.572 222.704,99.038 223.696,96.596 224.844 C 94.333 225.907,93.371 227.509,93.019 230.800 C 92.670 234.052,91.920 235.661,90.109 237.042 C 89.170 237.758,88.232 239.118,87.333 241.063 C 86.586 242.679,85.206 244.867,84.266 245.926 C 83.108 247.229,82.333 248.617,81.863 250.225 C 80.716 254.150,79.701 255.807,77.553 257.261 C 75.424 258.702,75.370 258.824,75.011 262.928 C 74.725 266.190,74.373 266.837,71.918 268.612 C 69.230 270.555,68.861 271.322,68.387 275.944 C 68.155 278.197,67.834 281.066,67.673 282.320 C 67.104 286.730,68.832 291.896,71.400 293.466 C 72.718 294.272,126.393 294.831,141.159 294.193 L 147.718 293.910 150.402 291.225 L 153.087 288.541 156.412 288.070 C 159.965 287.568,160.566 287.227,162.464 284.633 C 163.095 283.771,164.553 282.433,165.705 281.661 C 168.394 279.857,168.566 279.616,169.845 275.822 C 170.706 273.273,171.301 272.261,172.855 270.707 C 173.921 269.641,174.900 268.281,175.032 267.685 C 175.681 264.749,176.246 263.750,178.446 261.646 C 180.723 259.468,180.814 259.300,181.455 256.094 C 182.059 253.074,182.252 252.676,183.688 251.494 C 187.676 248.210,187.874 247.903,188.396 244.230 C 188.868 240.903,188.922 240.786,190.740 239.171 C 192.683 237.443,194.394 235.026,194.398 234.000 C 194.402 233.057,196.595 228.665,197.391 228.006 C 198.488 227.098,199.872 224.724,200.448 222.764 C 200.826 221.473,201.647 220.346,203.506 218.562 L 206.047 216.123 206.690 212.496 C 207.273 209.204,207.460 208.764,208.703 207.734 C 212.311 204.748,212.616 204.283,213.397 200.561 C 213.909 198.121,214.408 196.773,215.008 196.212 C 215.486 195.766,216.405 194.927,217.051 194.348 C 217.697 193.770,218.822 192.060,219.551 190.548 C 220.280 189.037,221.572 187.080,222.422 186.200 C 224.076 184.487,225.200 181.902,225.200 179.809 C 225.200 178.131,226.659 175.979,228.383 175.114 C 231.006 173.797,231.362 173.142,231.647 169.117 C 231.903 165.494,231.927 165.425,233.377 164.221 C 234.186 163.550,235.647 162.259,236.624 161.353 L 238.400 159.705 238.400 156.640 C 238.400 153.187,238.912 151.644,241.005 148.794 C 244.972 143.389,244.765 132.635,240.585 127.000 C 238.822 124.623,238.346 123.170,238.119 119.465 C 237.854 115.157,237.418 114.246,234.785 112.506 C 232.462 110.970,231.873 109.932,231.211 106.200 C 230.743 103.558,230.584 103.272,228.383 101.132 C 226.683 99.478,225.927 98.395,225.592 97.132 C 224.854 94.348,223.891 92.710,222.513 91.896 C 221.448 91.268,221.077 90.640,220.369 88.268 C 218.977 83.608,218.172 82.118,216.461 81.038 C 214.036 79.507,213.348 78.367,213.041 75.367 C 212.702 72.060,212.013 70.685,210.043 69.381 C 209.187 68.814,208.040 67.505,207.450 66.420 C 205.812 63.412,203.974 62.001,201.686 61.997 C 200.649 61.995,198.900 61.920,197.800 61.830 C 196.700 61.740,194.663 61.805,193.274 61.975 M204.034 65.040 C 204.326 65.393,204.933 66.601,205.382 67.726 C 206.142 69.624,206.531 70.025,209.336 71.800 C 209.750 72.062,210.186 73.509,210.601 76.000 C 211.317 80.304,211.960 81.461,214.271 82.600 C 216.901 83.897,217.068 84.159,217.368 87.467 C 217.728 91.447,219.729 94.800,221.744 94.800 C 222.382 94.800,223.435 96.648,223.796 98.400 C 224.268 100.693,225.242 102.509,226.855 104.104 C 228.038 105.273,228.602 106.347,229.392 108.938 C 230.481 112.506,231.220 113.466,233.800 114.662 L 235.400 115.403 235.866 120.402 C 236.504 127.247,237.473 130.176,239.829 132.384 L 241.670 134.109 241.535 138.217 C 241.408 142.075,241.335 142.385,240.329 143.316 C 237.749 145.706,236.000 150.974,236.000 156.358 C 236.000 159.712,235.653 160.384,233.600 161.010 C 230.681 161.900,229.750 163.594,229.363 168.716 C 229.073 172.560,228.897 172.923,227.111 173.350 C 225.479 173.739,224.509 175.034,223.534 178.120 C 222.759 180.578,221.585 182.400,220.778 182.400 C 220.101 182.400,218.281 185.925,217.626 188.505 C 216.895 191.383,216.470 191.953,214.078 193.262 C 212.215 194.281,211.459 195.822,210.794 199.957 L 210.183 203.757 208.433 204.781 C 205.982 206.214,205.295 207.317,204.347 211.339 C 203.576 214.611,203.406 214.935,201.894 216.030 C 199.948 217.440,199.465 218.097,198.831 220.200 C 197.791 223.647,197.157 224.709,195.998 224.940 C 194.369 225.266,193.230 227.173,192.560 230.697 C 191.563 235.937,191.496 236.103,190.194 236.519 C 187.421 237.404,186.413 239.271,185.724 244.800 C 185.402 247.382,185.387 247.406,183.618 248.255 C 181.066 249.479,180.277 250.612,179.241 254.531 C 178.737 256.439,178.173 258.000,177.987 258.000 C 176.716 258.000,174.379 261.569,173.796 264.400 C 173.432 266.169,172.380 268.000,171.728 268.000 C 170.765 268.000,168.406 270.486,167.993 271.937 C 167.763 272.742,167.350 274.570,167.075 276.000 C 166.667 278.117,166.396 278.674,165.616 279.000 C 162.189 280.431,161.373 281.053,160.377 282.994 L 159.353 284.987 155.648 285.674 C 151.114 286.513,149.722 287.285,148.557 289.606 C 147.661 291.390,147.641 291.401,145.128 291.653 C 141.807 291.986,76.909 291.989,73.800 291.657 L 71.400 291.400 70.873 288.000 C 69.814 281.159,70.950 270.800,72.760 270.800 C 74.833 270.800,76.089 268.692,77.243 263.272 L 78.089 259.299 79.673 258.776 C 81.491 258.176,82.252 257.264,82.825 255.000 C 83.543 252.162,84.405 250.619,85.768 249.729 C 87.333 248.706,88.613 246.263,89.253 243.077 C 89.738 240.664,90.625 239.444,92.699 238.335 C 94.476 237.385,95.154 235.755,95.450 231.729 C 95.741 227.764,95.934 227.387,98.194 226.364 C 101.355 224.932,101.808 224.155,102.236 219.425 C 102.554 215.914,102.785 215.515,105.197 214.303 C 107.065 213.364,107.675 212.315,108.762 208.170 C 109.039 207.117,109.541 206.353,110.182 206.010 C 111.716 205.189,113.169 202.648,114.031 199.280 C 114.882 195.951,115.174 195.512,117.223 194.483 C 119.256 193.463,120.296 191.615,120.600 188.486 C 120.922 185.165,121.280 183.934,122.024 183.593 C 125.619 181.946,126.159 181.139,127.148 175.929 L 127.857 172.200 129.680 171.327 C 131.446 170.481,133.200 168.020,133.200 166.387 C 133.200 165.100,134.541 162.460,135.438 161.979 C 136.885 161.205,138.692 158.104,139.357 155.251 C 139.983 152.569,140.716 151.471,142.495 150.551 C 144.083 149.730,145.114 147.382,145.433 143.863 C 145.732 140.560,145.900 140.297,148.529 139.000 C 150.928 137.817,151.531 136.709,152.128 132.380 C 152.750 127.867,152.808 127.750,154.839 126.938 C 157.169 126.006,158.658 123.146,158.798 119.337 C 158.799 119.302,159.610 118.440,160.599 117.422 C 162.352 115.619,163.998 112.956,164.002 111.916 C 164.010 110.168,164.889 108.460,166.022 107.991 C 169.256 106.651,170.333 104.867,170.666 100.295 C 170.928 96.709,171.401 95.795,173.200 95.400 C 175.421 94.912,176.680 92.469,177.041 87.945 C 177.342 84.178,177.528 83.794,179.219 83.456 C 181.117 83.077,182.271 81.574,183.249 78.211 C 183.982 75.687,184.489 74.773,186.101 73.071 C 188.387 70.656,189.026 69.560,189.416 67.386 C 189.940 64.473,190.130 64.400,197.213 64.400 C 202.492 64.400,203.587 64.503,204.034 65.040 M270.245 196.639 C 269.340 197.651,267.700 198.931,266.600 199.483 C 263.583 200.999,262.860 201.862,261.932 205.055 C 261.359 207.030,260.592 208.551,259.510 209.860 C 257.787 211.945,256.786 213.743,256.007 216.149 C 255.705 217.083,254.601 218.592,253.226 219.949 C 251.152 221.996,250.900 222.436,250.444 224.800 C 249.697 228.670,249.056 229.825,246.840 231.289 C 244.245 233.004,243.648 234.107,243.340 237.758 C 243.067 240.984,242.392 242.156,239.905 243.722 C 238.704 244.479,237.673 246.290,236.633 249.468 C 236.261 250.606,235.260 252.328,234.409 253.295 C 233.558 254.262,232.150 256.592,231.281 258.472 C 229.993 261.261,229.377 262.115,227.942 263.103 C 225.696 264.647,225.307 265.491,225.058 269.350 C 224.855 272.482,223.670 274.768,222.225 274.813 C 217.693 274.955,217.370 285.363,221.802 288.487 C 222.763 289.164,224.113 290.504,224.802 291.463 C 227.083 294.639,223.286 294.405,271.680 294.358 C 328.072 294.302,324.034 294.641,325.804 289.814 C 326.204 288.721,327.193 287.119,328.001 286.253 L 329.470 284.678 327.518 278.839 C 326.444 275.627,325.390 272.247,325.174 271.326 C 324.933 270.291,324.305 269.222,323.530 268.526 C 320.524 265.825,320.507 265.798,319.994 262.766 C 319.405 259.291,318.294 257.409,315.997 256.000 C 313.756 254.625,313.304 253.782,312.978 250.360 C 312.638 246.809,312.054 245.537,310.174 244.260 C 308.546 243.153,306.800 240.947,306.800 239.995 C 306.800 238.082,305.419 234.972,303.802 233.244 C 302.847 232.222,301.436 230.007,300.668 228.322 C 299.674 226.140,298.945 225.088,298.136 224.667 C 295.904 223.506,295.203 222.319,294.527 218.556 L 293.888 215.000 291.144 212.346 C 289.635 210.887,288.400 209.595,288.400 209.475 C 288.400 204.340,286.950 201.517,283.400 199.746 C 282.300 199.196,280.680 198.059,279.800 197.217 C 278.465 195.940,277.765 195.614,275.567 195.243 C 271.925 194.630,272.079 194.590,270.245 196.639 M275.753 200.012 C 277.047 200.269,278.910 200.906,279.892 201.429 C 280.875 201.951,282.285 202.492,283.025 202.631 C 284.824 202.969,285.004 203.276,285.587 207.000 C 286.282 211.434,287.189 213.066,289.525 214.086 C 290.556 214.536,291.443 214.938,291.496 214.981 C 291.548 215.023,291.770 216.785,291.989 218.896 C 292.503 223.847,292.862 224.576,295.408 225.821 C 297.687 226.937,298.003 227.406,298.963 231.119 C 299.704 233.986,301.170 236.435,302.604 237.202 C 303.185 237.513,303.853 238.470,304.251 239.563 C 305.775 243.750,306.384 244.828,307.611 245.508 C 309.880 246.766,309.957 246.908,310.552 250.960 C 311.311 256.132,311.678 256.624,316.400 258.807 C 316.830 259.006,317.084 260.081,317.296 262.599 C 317.633 266.594,318.346 268.160,320.422 269.462 C 323.364 271.308,323.386 271.357,324.191 277.607 C 324.601 280.793,324.919 283.760,324.898 284.200 C 324.835 285.495,323.231 290.929,322.777 291.383 C 322.188 291.972,228.694 292.185,227.601 291.601 C 227.168 291.369,226.435 290.299,225.972 289.224 C 225.348 287.774,224.804 287.139,223.865 286.769 C 220.086 285.279,219.576 277.796,223.200 277.000 C 225.155 276.571,226.333 274.496,227.266 269.838 C 227.993 266.214,228.220 265.631,228.987 265.439 C 230.561 265.044,231.922 263.634,232.600 261.696 C 233.542 259.002,234.465 257.200,234.901 257.200 C 236.812 257.200,238.685 254.028,239.363 249.646 C 239.798 246.832,239.934 246.545,241.216 245.728 C 244.993 243.319,245.288 242.779,245.881 237.204 L 246.200 234.207 248.049 233.332 C 250.494 232.174,251.376 230.962,252.189 227.646 C 252.781 225.229,253.150 224.593,255.183 222.483 C 257.518 220.060,257.627 219.819,258.623 214.930 C 258.727 214.419,259.502 213.676,260.500 213.130 C 262.548 212.010,263.910 209.558,264.259 206.365 C 264.588 203.353,265.190 202.576,267.774 201.825 C 268.983 201.473,270.473 200.746,271.086 200.209 C 271.699 199.672,272.470 199.303,272.800 199.389 C 273.130 199.475,274.459 199.755,275.753 200.012 " stroke="none" fill="#f4b4b4" fill-rule="evenodd"></path><path id="path3" d="M153.600 1.800 L 153.600 3.600 145.300 3.608 C 129.398 3.624,129.371 3.631,128.617 8.100 L 128.364 9.600 124.082 9.641 C 121.727 9.663,119.206 9.648,118.480 9.608 C 116.455 9.496,116.027 10.105,116.050 13.068 C 116.075 16.289,116.794 15.943,109.785 16.082 L 103.800 16.200 103.693 19.174 C 103.561 22.819,104.331 22.404,97.666 22.425 C 91.162 22.446,91.091 22.486,91.252 26.005 C 91.364 28.471,91.570 28.315,87.996 28.470 L 85.000 28.600 84.870 31.596 C 84.712 35.246,85.473 34.810,79.239 34.827 C 72.697 34.846,72.255 35.107,72.466 38.820 L 72.600 41.172 69.400 41.286 L 66.200 41.400 66.083 44.283 L 65.966 47.167 62.883 47.283 L 59.800 47.400 59.683 50.483 L 59.567 53.566 56.683 53.683 L 53.800 53.800 53.683 56.683 L 53.566 59.567 50.483 59.683 L 47.400 59.800 47.283 62.883 L 47.167 65.966 44.283 66.083 L 41.400 66.200 41.286 69.400 L 41.172 72.600 38.820 72.466 C 35.107 72.255,34.846 72.697,34.827 79.239 C 34.810 85.473,35.246 84.712,31.596 84.870 L 28.600 85.000 28.470 87.996 C 28.315 91.570,28.471 91.364,26.005 91.252 C 22.486 91.091,22.446 91.162,22.425 97.666 C 22.404 104.331,22.819 103.561,19.174 103.693 L 16.200 103.800 16.082 109.785 C 15.943 116.794,16.289 116.075,13.068 116.050 C 10.105 116.027,9.496 116.455,9.608 118.480 C 9.648 119.206,9.663 121.727,9.641 124.082 L 9.600 128.364 8.100 128.617 C 3.631 129.371,3.624 129.398,3.608 145.300 L 3.600 153.600 1.800 153.600 L 0.000 153.600 0.000 200.200 L 0.000 246.800 1.800 246.800 L 3.600 246.800 3.608 255.100 C 3.624 271.002,3.631 271.029,8.100 271.783 L 9.600 272.036 9.641 276.318 C 9.663 278.673,9.648 281.194,9.608 281.920 C 9.496 283.945,10.105 284.373,13.068 284.350 C 16.289 284.325,15.943 283.606,16.082 290.615 L 16.200 296.600 19.174 296.707 C 22.819 296.839,22.404 296.069,22.425 302.734 C 22.446 309.238,22.486 309.309,26.005 309.148 C 28.471 309.036,28.315 308.830,28.470 312.404 L 28.600 315.400 31.596 315.530 C 35.246 315.688,34.810 314.927,34.827 321.161 C 34.846 327.703,35.107 328.145,38.820 327.934 L 41.172 327.800 41.286 331.000 L 41.400 334.200 44.283 334.317 L 47.167 334.434 47.283 337.517 L 47.400 340.600 50.483 340.717 L 53.566 340.833 53.683 343.717 L 53.800 346.600 56.683 346.717 L 59.567 346.834 59.683 349.917 L 59.800 353.000 62.883 353.117 L 65.966 353.233 66.083 356.117 L 66.200 359.000 69.400 359.114 L 72.600 359.228 72.466 361.580 C 72.255 365.293,72.697 365.554,79.239 365.573 C 85.473 365.590,84.712 365.154,84.870 368.804 L 85.000 371.800 87.996 371.930 C 91.570 372.085,91.364 371.929,91.252 374.395 C 91.091 377.914,91.162 377.954,97.666 377.975 C 104.331 377.996,103.561 377.581,103.693 381.226 L 103.800 384.200 109.785 384.318 C 116.794 384.457,116.075 384.111,116.050 387.332 C 116.027 390.295,116.455 390.904,118.480 390.792 C 119.206 390.752,121.727 390.737,124.082 390.759 L 128.364 390.800 128.617 392.300 C 129.371 396.769,129.398 396.776,145.300 396.792 L 153.600 396.800 153.600 398.400 L 153.600 400.000 200.200 400.000 L 246.800 400.000 246.800 398.400 L 246.800 396.800 255.100 396.792 C 271.002 396.776,271.029 396.769,271.783 392.300 L 272.036 390.800 276.318 390.759 C 278.673 390.737,281.194 390.752,281.920 390.792 C 283.945 390.904,284.373 390.295,284.350 387.332 C 284.325 384.111,283.606 384.457,290.615 384.318 L 296.600 384.200 296.707 381.226 C 296.839 377.581,296.069 377.996,302.734 377.975 C 309.238 377.954,309.309 377.914,309.148 374.395 C 309.036 371.929,308.830 372.085,312.404 371.930 L 315.400 371.800 315.530 368.804 C 315.688 365.154,314.927 365.590,321.161 365.573 C 327.703 365.554,328.145 365.293,327.934 361.580 L 327.800 359.228 331.000 359.114 L 334.200 359.000 334.317 356.117 L 334.434 353.233 337.517 353.117 L 340.600 353.000 340.717 349.917 L 340.833 346.834 343.717 346.717 L 346.600 346.600 346.717 343.717 L 346.834 340.833 349.917 340.717 L 353.000 340.600 353.117 337.517 L 353.233 334.434 356.117 334.317 L 359.000 334.200 359.114 331.000 L 359.228 327.800 361.580 327.934 C 365.293 328.145,365.554 327.703,365.573 321.161 C 365.590 314.927,365.154 315.688,368.804 315.530 L 371.800 315.400 371.930 312.404 C 372.085 308.830,371.929 309.036,374.395 309.148 C 377.914 309.309,377.954 309.238,377.975 302.734 C 377.996 296.069,377.581 296.839,381.226 296.707 L 384.200 296.600 384.318 290.615 C 384.457 283.606,384.111 284.325,387.332 284.350 C 390.295 284.373,390.904 283.945,390.792 281.920 C 390.752 281.194,390.737 278.673,390.759 276.318 L 390.800 272.036 392.300 271.783 C 396.769 271.029,396.776 271.002,396.792 255.100 L 396.800 246.800 398.400 246.800 L 400.000 246.800 400.000 200.200 L 400.000 153.600 398.400 153.600 L 396.800 153.600 396.792 145.300 C 396.776 129.398,396.769 129.371,392.300 128.617 L 390.800 128.364 390.759 124.082 C 390.737 121.727,390.752 119.206,390.792 118.480 C 390.904 116.455,390.295 116.027,387.332 116.050 C 384.111 116.075,384.457 116.794,384.318 109.785 L 384.200 103.800 381.226 103.693 C 377.581 103.561,377.996 104.331,377.975 97.666 C 377.954 91.162,377.914 91.091,374.395 91.252 C 371.929 91.364,372.085 91.570,371.930 87.996 L 371.800 85.000 368.804 84.870 C 365.154 84.712,365.590 85.473,365.573 79.239 C 365.554 72.697,365.293 72.255,361.580 72.466 L 359.228 72.600 359.114 69.400 L 359.000 66.200 356.117 66.083 L 353.233 65.966 353.117 62.883 L 353.000 59.800 349.917 59.683 L 346.834 59.567 346.717 56.683 L 346.600 53.800 343.717 53.683 L 340.833 53.566 340.717 50.483 L 340.600 47.400 337.517 47.283 L 334.434 47.167 334.317 44.283 L 334.200 41.400 331.000 41.286 L 327.800 41.172 327.934 38.820 C 328.145 35.107,327.703 34.846,321.161 34.827 C 314.927 34.810,315.688 35.246,315.530 31.596 L 315.400 28.600 312.404 28.470 C 308.830 28.315,309.036 28.471,309.148 26.005 C 309.309 22.486,309.238 22.446,302.734 22.425 C 296.069 22.404,296.839 22.819,296.707 19.174 L 296.600 16.200 290.615 16.082 C 283.606 15.943,284.325 16.289,284.350 13.068 C 284.373 10.105,283.945 9.496,281.920 9.608 C 281.194 9.648,278.673 9.663,276.318 9.641 L 272.036 9.600 271.783 8.100 C 271.029 3.631,271.002 3.624,255.100 3.608 L 246.800 3.600 246.800 1.800 L 246.800 0.000 200.200 0.000 L 153.600 0.000 153.600 1.800 M132.280 5.439 C 131.664 5.773,130.810 6.621,130.381 7.323 C 129.953 8.025,129.602 8.357,129.601 8.060 C 129.600 7.351,132.166 4.795,132.860 4.816 C 133.157 4.825,132.896 5.105,132.280 5.439 M269.440 6.160 C 270.188 6.908,270.793 7.763,270.784 8.060 C 270.775 8.357,270.495 8.096,270.161 7.480 C 269.827 6.864,268.979 6.010,268.277 5.581 C 267.575 5.153,267.243 4.802,267.540 4.801 C 267.837 4.801,268.692 5.412,269.440 6.160 M199.195 57.950 C 200.673 59.356,201.087 59.525,203.663 59.779 C 207.817 60.188,208.274 60.439,208.582 62.475 C 209.189 66.489,209.053 66.284,211.254 66.496 C 214.158 66.775,214.781 67.569,215.298 71.648 C 215.737 75.116,217.104 77.235,219.787 78.608 C 220.852 79.153,221.586 80.688,221.600 82.400 C 221.620 84.885,221.987 85.564,223.546 86.002 C 225.886 86.659,227.574 90.072,227.601 94.200 C 227.617 96.776,227.971 97.600,229.059 97.600 C 232.527 97.600,234.000 99.735,234.000 104.761 C 234.000 109.069,234.386 110.000,236.171 110.000 C 239.688 110.000,240.373 111.195,240.689 117.882 L 240.922 122.802 242.398 123.199 C 246.024 124.176,246.377 125.493,246.390 138.080 C 246.403 150.388,245.734 153.200,242.792 153.200 C 241.705 153.200,240.800 154.962,240.798 157.086 C 240.790 163.063,239.814 164.909,236.423 165.359 L 234.400 165.628 234.392 168.114 C 234.369 175.110,233.417 177.181,230.074 177.503 C 227.767 177.724,227.600 178.079,227.600 182.753 C 227.600 187.497,226.401 189.727,223.596 190.201 C 221.975 190.474,221.616 191.059,221.605 193.437 C 221.590 196.882,219.351 200.824,216.962 201.613 C 215.776 202.004,215.618 202.239,215.404 203.924 C 214.861 208.211,214.054 209.084,210.560 209.170 L 209.320 209.200 209.053 213.271 C 208.560 220.796,208.117 221.600,204.459 221.600 C 203.119 221.600,202.814 222.279,202.805 225.280 C 202.791 230.293,201.353 232.974,198.427 233.442 C 197.532 233.585,196.794 233.814,196.787 233.951 C 196.533 238.778,194.587 242.909,191.887 244.354 C 190.989 244.834,190.815 245.258,190.573 247.554 C 190.115 251.898,188.985 253.200,185.673 253.200 L 184.520 253.200 184.257 257.221 C 183.861 263.256,182.595 265.200,179.059 265.200 C 177.983 265.200,177.614 266.032,177.605 268.480 C 177.589 272.890,176.034 276.072,173.546 276.788 C 172.040 277.221,171.616 277.941,171.605 280.081 C 171.593 282.567,170.094 283.994,167.481 284.006 C 165.659 284.015,165.343 284.352,165.102 286.545 C 164.773 289.534,164.026 290.038,159.129 290.565 C 154.665 291.045,153.200 291.596,153.200 292.795 C 153.200 296.770,155.149 296.600,109.600 296.600 C 62.948 296.600,66.946 297.068,66.208 291.524 C 65.984 289.843,65.821 289.603,64.638 289.213 C 59.857 287.635,60.081 279.060,64.986 275.846 C 65.737 275.354,65.938 274.755,66.164 272.326 C 66.620 267.444,67.484 266.000,69.949 266.000 C 71.449 266.000,72.283 264.381,72.554 260.943 C 72.976 255.606,74.034 254.000,77.130 254.000 C 78.492 254.000,78.800 253.102,78.800 249.127 C 78.800 244.027,79.914 242.047,82.975 241.702 C 84.943 241.480,84.803 241.726,85.345 237.549 C 85.704 234.790,87.666 231.504,89.477 230.631 C 91.172 229.814,91.600 228.720,91.600 225.206 C 91.600 223.685,92.753 222.815,95.145 222.532 L 97.200 222.289 97.208 219.644 C 97.230 212.453,98.157 210.421,101.567 210.094 C 102.685 209.986,103.610 209.876,103.623 209.849 C 103.636 209.822,103.793 207.758,103.973 205.263 C 104.358 199.910,104.878 198.901,107.701 198.038 C 109.684 197.432,109.985 196.938,109.995 194.275 C 110.008 190.425,112.190 186.626,114.652 186.164 C 115.864 185.936,115.981 185.778,116.197 184.059 C 116.740 179.734,117.626 178.400,119.957 178.400 C 121.504 178.400,122.180 176.913,122.644 172.488 C 123.162 167.556,123.946 166.400,126.772 166.400 C 128.544 166.400,128.798 165.779,128.802 161.450 C 128.807 156.710,130.001 154.740,133.200 154.200 C 134.920 153.909,134.889 153.978,135.365 149.400 C 135.831 144.914,137.166 142.627,139.604 142.139 C 141.154 141.829,141.600 140.984,141.600 138.358 C 141.600 136.350,142.338 134.800,143.294 134.800 C 144.926 134.800,147.125 131.271,147.414 128.187 C 147.766 124.433,148.930 122.805,151.269 122.794 C 153.360 122.784,153.537 122.477,153.818 118.389 C 154.267 111.851,154.820 110.784,158.063 110.192 C 159.622 109.907,159.984 109.302,159.995 106.963 C 160.010 103.504,162.249 99.576,164.659 98.781 C 165.396 98.537,166.004 98.217,166.008 98.069 C 166.154 93.184,167.044 91.703,170.036 91.364 L 172.400 91.097 172.408 88.448 C 172.430 81.335,173.576 78.800,176.770 78.800 C 178.515 78.800,178.785 78.082,178.798 73.400 C 178.811 68.681,179.750 67.156,183.000 66.572 C 184.857 66.239,185.185 65.871,185.194 64.119 C 185.208 61.148,186.354 60.242,190.673 59.788 C 192.831 59.561,193.355 59.329,194.790 57.964 C 196.828 56.024,197.170 56.023,199.195 57.950 M7.480 130.239 C 6.864 130.573,6.010 131.421,5.581 132.123 C 5.153 132.825,4.802 133.157,4.801 132.860 C 4.800 132.151,7.366 129.595,8.060 129.616 C 8.357 129.625,8.096 129.905,7.480 130.239 M394.240 130.960 C 394.988 131.708,395.593 132.563,395.584 132.860 C 395.575 133.157,395.295 132.896,394.961 132.280 C 394.627 131.664,393.779 130.810,393.077 130.381 C 392.375 129.953,392.043 129.602,392.340 129.601 C 392.637 129.601,393.492 130.212,394.240 130.960 M282.287 192.507 C 282.679 192.897,283.278 194.157,283.618 195.307 L 284.236 197.400 286.369 197.663 C 289.859 198.092,290.745 200.014,290.787 207.248 L 290.800 209.497 292.744 209.755 C 295.337 210.099,295.969 210.899,296.459 214.462 C 296.681 216.078,296.991 217.447,297.148 217.505 C 299.790 218.483,302.041 221.432,302.564 224.600 C 302.673 225.260,302.866 226.460,302.993 227.267 C 303.205 228.614,303.356 228.756,304.835 229.006 C 307.746 229.498,308.402 230.463,308.634 234.600 C 308.746 236.580,308.930 238.965,309.043 239.900 L 309.249 241.600 311.363 241.600 C 314.553 241.600,315.564 243.616,315.592 250.030 C 315.602 252.218,316.612 253.361,318.899 253.769 C 320.520 254.058,321.600 255.482,321.600 257.330 C 321.600 259.761,322.068 260.760,323.414 261.205 C 325.400 261.860,327.600 266.173,327.600 269.413 C 327.600 272.041,328.043 273.197,329.151 273.457 C 332.542 274.253,333.318 275.588,333.785 281.436 C 334.234 287.057,333.323 289.121,330.000 290.004 C 327.983 290.540,327.615 290.921,327.606 292.481 C 327.581 296.892,331.315 296.600,275.000 296.600 C 222.849 296.600,223.175 296.611,222.592 294.775 C 222.457 294.349,222.191 294.000,222.002 294.000 C 221.812 294.000,220.812 293.190,219.778 292.200 C 218.745 291.210,217.756 290.400,217.581 290.400 C 216.294 290.400,215.615 276.615,216.793 274.413 C 217.341 273.389,219.470 272.400,221.127 272.400 L 222.280 272.400 222.544 268.048 C 222.936 261.590,223.843 260.000,227.133 260.000 C 228.481 260.000,228.786 259.325,228.795 256.320 C 228.809 251.328,230.248 248.626,233.138 248.164 C 234.846 247.890,235.184 247.358,235.195 244.926 C 235.203 243.049,235.834 241.707,236.863 241.380 C 239.412 240.571,241.085 237.979,241.380 234.380 C 241.791 229.368,242.060 229.006,245.584 228.714 C 247.265 228.576,247.503 227.946,247.560 223.487 C 247.624 218.508,249.114 216.400,252.569 216.400 C 253.664 216.400,253.760 216.095,254.173 211.295 C 254.479 207.740,255.537 205.871,257.763 204.950 C 259.583 204.197,259.984 203.581,259.995 201.519 C 260.007 199.033,261.506 197.606,264.119 197.594 C 265.908 197.585,266.260 197.251,266.597 195.236 C 267.172 191.797,267.828 191.525,275.196 191.673 C 280.651 191.782,281.677 191.902,282.287 192.507 M7.323 270.019 C 8.025 270.447,8.357 270.798,8.060 270.799 C 7.351 270.800,4.795 268.234,4.816 267.540 C 4.825 267.243,5.105 267.504,5.439 268.120 C 5.773 268.736,6.621 269.590,7.323 270.019 M395.235 268.335 C 394.729 269.280,392.885 270.801,392.246 270.799 C 392.001 270.798,392.389 270.438,393.108 269.999 C 393.828 269.561,394.622 268.751,394.873 268.199 C 395.124 267.648,395.405 267.272,395.497 267.364 C 395.589 267.456,395.471 267.893,395.235 268.335 M132.123 394.819 C 132.825 395.247,133.157 395.598,132.860 395.599 C 132.151 395.600,129.595 393.034,129.616 392.340 C 129.625 392.043,129.905 392.304,130.239 392.920 C 130.573 393.536,131.421 394.390,132.123 394.819 M270.435 393.135 C 269.929 394.080,268.085 395.601,267.446 395.599 C 267.201 395.598,267.589 395.238,268.308 394.799 C 269.028 394.361,269.822 393.551,270.073 392.999 C 270.324 392.448,270.605 392.072,270.697 392.164 C 270.789 392.256,270.671 392.693,270.435 393.135 " stroke="none" fill="#ec4444" fill-rule="evenodd"></path><path id="path4" d="M130.960 6.160 C 130.212 6.908,129.601 7.763,129.601 8.060 C 129.602 8.357,129.953 8.025,130.381 7.323 C 130.810 6.621,131.664 5.773,132.280 5.439 C 132.896 5.105,133.157 4.825,132.860 4.816 C 132.563 4.807,131.708 5.412,130.960 6.160 M268.277 5.581 C 268.979 6.010,269.827 6.864,270.161 7.480 C 270.495 8.096,270.775 8.357,270.784 8.060 C 270.805 7.366,268.249 4.800,267.540 4.801 C 267.243 4.802,267.575 5.153,268.277 5.581 M194.790 57.964 C 193.355 59.329,192.831 59.561,190.673 59.788 C 186.354 60.242,185.208 61.148,185.194 64.119 C 185.185 65.871,184.857 66.239,183.000 66.572 C 179.750 67.156,178.811 68.681,178.798 73.400 C 178.785 78.082,178.515 78.800,176.770 78.800 C 173.576 78.800,172.430 81.335,172.408 88.448 L 172.400 91.097 170.036 91.364 C 167.044 91.703,166.154 93.184,166.008 98.069 C 166.004 98.217,165.396 98.537,164.659 98.781 C 162.249 99.576,160.010 103.504,159.995 106.963 C 159.984 109.302,159.622 109.907,158.063 110.192 C 154.820 110.784,154.267 111.851,153.818 118.389 C 153.537 122.477,153.360 122.784,151.269 122.794 C 148.930 122.805,147.766 124.433,147.414 128.187 C 147.125 131.271,144.926 134.800,143.294 134.800 C 142.338 134.800,141.600 136.350,141.600 138.358 C 141.600 140.984,141.154 141.829,139.604 142.139 C 137.166 142.627,135.831 144.914,135.365 149.400 C 134.889 153.978,134.920 153.909,133.200 154.200 C 130.001 154.740,128.807 156.710,128.802 161.450 C 128.798 165.779,128.544 166.400,126.772 166.400 C 123.946 166.400,123.162 167.556,122.644 172.488 C 122.180 176.913,121.504 178.400,119.957 178.400 C 117.626 178.400,116.740 179.734,116.197 184.059 C 115.981 185.778,115.864 185.936,114.652 186.164 C 112.190 186.626,110.008 190.425,109.995 194.275 C 109.985 196.938,109.684 197.432,107.701 198.038 C 104.878 198.901,104.358 199.910,103.973 205.263 C 103.793 207.758,103.636 209.822,103.623 209.849 C 103.610 209.876,102.685 209.986,101.567 210.094 C 98.157 210.421,97.230 212.453,97.208 219.644 L 97.200 222.289 95.145 222.532 C 92.753 222.815,91.600 223.685,91.600 225.206 C 91.600 228.720,91.172 229.814,89.477 230.631 C 87.666 231.504,85.704 234.790,85.345 237.549 C 84.803 241.726,84.943 241.480,82.975 241.702 C 79.914 242.047,78.800 244.027,78.800 249.127 C 78.800 253.102,78.492 254.000,77.130 254.000 C 74.034 254.000,72.976 255.606,72.554 260.943 C 72.283 264.381,71.449 266.000,69.949 266.000 C 67.484 266.000,66.620 267.444,66.164 272.326 C 65.938 274.755,65.737 275.354,64.986 275.846 C 60.081 279.060,59.857 287.635,64.638 289.213 C 65.821 289.603,65.984 289.843,66.208 291.524 C 66.946 297.068,62.948 296.600,109.600 296.600 C 155.149 296.600,153.200 296.770,153.200 292.795 C 153.200 291.596,154.665 291.045,159.129 290.565 C 164.026 290.038,164.773 289.534,165.102 286.545 C 165.343 284.352,165.659 284.015,167.481 284.006 C 170.094 283.994,171.593 282.567,171.605 280.081 C 171.616 277.941,172.040 277.221,173.546 276.788 C 176.034 276.072,177.589 272.890,177.605 268.480 C 177.614 266.032,177.983 265.200,179.059 265.200 C 182.595 265.200,183.861 263.256,184.257 257.221 L 184.520 253.200 185.673 253.200 C 188.985 253.200,190.115 251.898,190.573 247.554 C 190.815 245.258,190.989 244.834,191.887 244.354 C 194.587 242.909,196.533 238.778,196.787 233.951 C 196.794 233.814,197.532 233.585,198.427 233.442 C 201.353 232.974,202.791 230.293,202.805 225.280 C 202.814 222.279,203.119 221.600,204.459 221.600 C 208.117 221.600,208.560 220.796,209.053 213.271 L 209.320 209.200 210.560 209.170 C 214.054 209.084,214.861 208.211,215.404 203.924 C 215.618 202.239,215.776 202.004,216.962 201.613 C 219.351 200.824,221.590 196.882,221.605 193.437 C 221.616 191.059,221.975 190.474,223.596 190.201 C 226.401 189.727,227.600 187.497,227.600 182.753 C 227.600 178.079,227.767 177.724,230.074 177.503 C 233.417 177.181,234.369 175.110,234.392 168.114 L 234.400 165.628 236.423 165.359 C 239.814 164.909,240.790 163.063,240.798 157.086 C 240.800 154.962,241.705 153.200,242.792 153.200 C 245.734 153.200,246.403 150.388,246.390 138.080 C 246.377 125.493,246.024 124.176,242.398 123.199 L 240.922 122.802 240.689 117.882 C 240.373 111.195,239.688 110.000,236.171 110.000 C 234.386 110.000,234.000 109.069,234.000 104.761 C 234.000 99.735,232.527 97.600,229.059 97.600 C 227.971 97.600,227.617 96.776,227.601 94.200 C 227.574 90.072,225.886 86.659,223.546 86.002 C 221.987 85.564,221.620 84.885,221.600 82.400 C 221.586 80.688,220.852 79.153,219.787 78.608 C 217.104 77.235,215.737 75.116,215.298 71.648 C 214.781 67.569,214.158 66.775,211.254 66.496 C 209.053 66.284,209.189 66.489,208.582 62.475 C 208.274 60.439,207.817 60.188,203.663 59.779 C 201.087 59.525,200.673 59.356,199.195 57.950 C 197.170 56.023,196.828 56.024,194.790 57.964 M201.898 60.401 C 206.444 60.992,207.853 62.026,208.374 65.156 C 208.607 66.554,208.775 66.708,211.277 67.815 C 213.370 68.742,213.984 69.933,214.737 74.529 L 215.400 78.573 216.738 78.955 C 218.495 79.457,220.271 81.272,220.596 82.899 C 221.189 85.865,222.086 87.965,223.023 88.578 C 224.387 89.472,225.915 92.024,226.442 94.290 C 227.156 97.359,227.907 98.531,229.719 99.400 C 232.021 100.504,232.839 102.115,233.154 106.165 C 233.416 109.534,233.960 110.799,235.149 110.801 C 237.874 110.808,239.413 113.387,239.795 118.590 C 240.149 123.409,240.412 124.179,241.979 124.989 C 246.940 127.555,247.104 147.905,242.190 151.259 C 240.546 152.382,240.001 153.749,239.998 156.760 C 239.993 161.073,238.580 163.744,236.031 164.254 C 234.108 164.638,233.715 165.453,233.296 169.915 C 232.858 174.597,232.243 175.655,229.484 176.482 C 227.457 177.089,226.948 177.981,226.650 181.444 C 226.320 185.279,225.237 187.643,223.413 188.513 C 221.978 189.197,221.531 189.918,220.222 193.649 C 219.773 194.928,218.976 196.001,217.636 197.131 C 215.806 198.674,215.649 198.966,214.808 202.369 C 213.841 206.282,212.829 207.807,210.934 208.208 C 208.704 208.680,208.614 208.844,208.385 212.842 C 208.119 217.483,207.424 218.969,205.024 220.030 C 202.760 221.032,202.438 221.482,201.799 224.535 C 201.080 227.975,199.848 230.281,198.215 231.244 C 196.940 231.996,195.600 234.344,195.600 235.824 C 195.600 237.358,193.916 239.697,192.377 240.302 C 191.060 240.819,190.776 241.142,190.568 242.358 C 189.290 249.828,188.943 250.543,185.893 252.000 L 183.800 253.000 183.299 256.565 C 182.696 260.856,181.921 262.342,179.734 263.400 C 177.883 264.296,177.015 265.506,176.688 267.648 C 176.234 270.620,173.811 274.800,172.542 274.800 C 172.245 274.800,171.645 276.044,171.142 277.700 C 170.181 280.863,168.827 282.586,166.951 283.033 C 165.395 283.404,164.517 284.235,163.988 285.835 C 163.131 288.432,159.954 289.990,155.480 290.006 C 153.350 290.014,152.988 290.258,151.894 292.427 C 150.069 296.045,153.147 295.800,109.600 295.800 C 64.392 295.800,68.400 296.410,66.611 289.256 C 66.201 287.615,65.551 286.185,64.911 285.513 L 63.876 284.427 64.906 282.871 C 65.753 281.591,66.051 280.371,66.584 276.005 C 67.423 269.140,68.085 267.852,71.300 266.819 C 72.962 266.286,73.018 266.153,73.413 261.800 C 73.739 258.196,75.015 255.855,77.013 255.196 C 78.863 254.585,79.451 253.559,79.756 250.404 C 80.089 246.974,81.373 244.428,83.290 243.402 C 84.850 242.567,85.636 241.323,86.376 238.523 C 86.654 237.468,87.264 236.503,88.020 235.923 C 91.346 233.368,91.200 233.603,91.585 230.176 C 92.066 225.898,92.532 224.989,94.762 223.978 C 95.773 223.519,96.870 223.002,97.200 222.829 C 97.614 222.613,97.887 221.538,98.082 219.358 C 98.628 213.252,99.244 211.978,102.062 211.134 C 104.127 210.515,104.645 209.645,104.970 206.253 C 105.291 202.887,106.323 200.760,108.197 199.602 C 109.704 198.671,110.800 196.988,110.800 195.607 C 110.800 194.028,111.917 192.110,113.938 190.219 C 115.928 188.358,116.381 187.419,117.356 183.131 C 117.734 181.472,119.391 179.789,121.172 179.256 C 122.958 178.721,122.999 178.631,123.400 174.400 C 123.756 170.639,124.893 168.503,127.026 167.589 C 129.147 166.680,129.423 166.158,129.754 162.433 C 130.070 158.883,131.027 157.109,133.232 155.984 C 134.853 155.157,135.994 153.487,136.009 151.920 C 136.024 150.358,137.387 147.889,139.348 145.873 C 140.970 144.205,141.301 143.572,141.807 141.165 C 142.605 137.371,144.400 135.200,146.737 135.200 C 147.397 135.200,147.534 134.751,147.986 131.113 C 148.655 125.728,150.057 123.600,152.935 123.600 C 153.977 123.600,154.423 122.513,154.821 119.007 C 155.299 114.805,155.905 113.532,158.199 111.915 C 159.164 111.235,160.124 110.211,160.333 109.640 C 160.542 109.068,161.009 107.768,161.370 106.751 C 161.823 105.477,162.633 104.391,163.978 103.258 C 165.825 101.700,165.972 101.428,166.752 98.118 C 167.757 93.853,168.491 92.793,171.033 91.938 L 173.000 91.276 173.314 87.538 C 173.729 82.588,174.662 80.593,176.873 79.931 C 178.985 79.298,179.456 78.433,179.753 74.636 C 180.054 70.791,180.833 69.297,183.149 68.122 C 184.949 67.209,185.965 66.184,185.987 65.260 C 186.084 61.152,192.528 59.184,201.898 60.401 M6.160 130.960 C 5.412 131.708,4.801 132.563,4.801 132.860 C 4.802 133.157,5.153 132.825,5.581 132.123 C 6.010 131.421,6.864 130.573,7.480 130.239 C 8.096 129.905,8.357 129.625,8.060 129.616 C 7.763 129.607,6.908 130.212,6.160 130.960 M393.077 130.381 C 393.779 130.810,394.627 131.664,394.961 132.280 C 395.295 132.896,395.575 133.157,395.584 132.860 C 395.605 132.166,393.049 129.600,392.340 129.601 C 392.043 129.602,392.375 129.953,393.077 130.381 M267.855 192.508 C 267.294 193.069,266.769 194.209,266.597 195.236 C 266.260 197.251,265.908 197.585,264.119 197.594 C 261.506 197.606,260.007 199.033,259.995 201.519 C 259.984 203.581,259.583 204.197,257.763 204.950 C 255.537 205.871,254.479 207.740,254.173 211.295 C 253.760 216.095,253.664 216.400,252.569 216.400 C 249.114 216.400,247.624 218.508,247.560 223.487 C 247.503 227.946,247.265 228.576,245.584 228.714 C 242.060 229.006,241.791 229.368,241.380 234.380 C 241.085 237.979,239.412 240.571,236.863 241.380 C 235.834 241.707,235.203 243.049,235.195 244.926 C 235.184 247.358,234.846 247.890,233.138 248.164 C 230.248 248.626,228.809 251.328,228.795 256.320 C 228.786 259.325,228.481 260.000,227.133 260.000 C 223.843 260.000,222.936 261.590,222.544 268.048 L 222.280 272.400 221.127 272.400 C 219.470 272.400,217.341 273.389,216.793 274.413 C 215.615 276.615,216.294 290.400,217.581 290.400 C 217.756 290.400,218.745 291.210,219.778 292.200 C 220.812 293.190,221.812 294.000,222.002 294.000 C 222.191 294.000,222.457 294.349,222.592 294.775 C 223.175 296.611,222.849 296.600,275.000 296.600 C 331.315 296.600,327.581 296.892,327.606 292.481 C 327.615 290.921,327.983 290.540,330.000 290.004 C 333.323 289.121,334.234 287.057,333.785 281.436 C 333.318 275.588,332.542 274.253,329.151 273.457 C 328.043 273.197,327.600 272.041,327.600 269.413 C 327.600 266.173,325.400 261.860,323.414 261.205 C 322.068 260.760,321.600 259.761,321.600 257.330 C 321.600 255.482,320.520 254.058,318.899 253.769 C 316.612 253.361,315.602 252.218,315.592 250.030 C 315.564 243.616,314.553 241.600,311.363 241.600 L 309.249 241.600 309.043 239.900 C 308.930 238.965,308.746 236.580,308.634 234.600 C 308.402 230.463,307.746 229.498,304.835 229.006 C 303.356 228.756,303.205 228.614,302.993 227.267 C 302.866 226.460,302.673 225.260,302.564 224.600 C 302.041 221.432,299.790 218.483,297.148 217.505 C 296.991 217.447,296.681 216.078,296.459 214.462 C 295.969 210.899,295.337 210.099,292.744 209.755 L 290.800 209.497 290.787 207.248 C 290.745 200.014,289.859 198.092,286.369 197.663 L 284.236 197.400 283.618 195.307 C 282.598 191.855,282.515 191.819,275.196 191.673 C 268.912 191.547,268.804 191.559,267.855 192.508 M279.763 193.522 C 280.443 193.920,281.397 194.954,281.884 195.821 C 282.556 197.019,283.365 197.685,285.259 198.598 C 288.678 200.248,289.211 201.110,289.752 205.865 L 290.200 209.800 291.979 210.653 C 294.512 211.869,295.040 212.725,296.051 217.253 C 296.768 220.464,297.142 221.409,297.908 221.938 C 300.558 223.769,301.585 224.916,301.841 226.331 C 302.265 228.671,303.100 229.933,304.803 230.801 C 307.016 231.931,307.982 233.989,308.280 238.214 L 308.517 241.577 309.959 242.049 C 313.306 243.146,314.211 244.574,314.621 249.408 C 314.931 253.067,315.494 254.225,317.136 254.586 C 319.252 255.051,320.330 256.703,321.390 261.107 C 321.977 263.547,322.331 264.222,323.589 265.307 C 325.445 266.908,326.174 268.301,326.984 271.792 C 327.521 274.109,327.878 274.765,329.361 276.159 C 331.051 277.748,332.405 281.366,332.399 284.279 C 332.396 285.532,330.858 287.585,329.403 288.279 C 328.149 288.877,326.435 291.347,326.386 292.626 C 326.322 294.288,324.439 295.327,320.935 295.634 C 315.155 296.140,228.873 296.070,227.000 295.558 C 224.951 294.998,224.067 294.209,223.123 292.100 C 222.660 291.065,222.096 290.399,221.681 290.399 C 218.583 290.392,217.046 287.346,217.157 281.438 C 217.258 276.110,217.594 275.377,220.661 273.790 L 223.000 272.580 223.439 268.535 C 223.954 263.794,224.869 261.903,226.985 261.205 C 228.811 260.602,229.171 260.073,229.801 257.065 C 230.518 253.638,231.751 251.320,233.363 250.369 C 234.699 249.581,235.736 247.733,236.211 245.299 C 236.551 243.549,238.479 241.682,240.106 241.525 L 241.400 241.400 241.650 237.577 C 241.986 232.435,243.702 229.608,246.491 229.601 C 247.626 229.599,248.294 227.984,248.524 224.688 C 248.787 220.895,249.615 219.290,251.866 218.200 C 253.784 217.272,254.587 216.092,254.958 213.658 C 255.309 211.351,256.145 209.789,258.229 207.542 C 259.444 206.233,260.150 204.993,260.621 203.342 C 261.389 200.647,262.778 198.956,264.543 198.569 C 266.444 198.151,267.177 197.543,267.993 195.711 C 269.469 192.396,275.814 191.216,279.763 193.522 M4.816 267.540 C 4.795 268.234,7.351 270.800,8.060 270.799 C 8.357 270.798,8.025 270.447,7.323 270.019 C 6.621 269.590,5.773 268.736,5.439 268.120 C 5.105 267.504,4.825 267.243,4.816 267.540 M394.873 268.199 C 394.622 268.751,393.828 269.561,393.108 269.999 C 392.389 270.438,392.001 270.798,392.246 270.799 C 393.274 270.802,396.027 267.894,395.497 267.364 C 395.405 267.272,395.124 267.648,394.873 268.199 M129.616 392.340 C 129.595 393.034,132.151 395.600,132.860 395.599 C 133.157 395.598,132.825 395.247,132.123 394.819 C 131.421 394.390,130.573 393.536,130.239 392.920 C 129.905 392.304,129.625 392.043,129.616 392.340 M270.073 392.999 C 269.822 393.551,269.028 394.361,268.308 394.799 C 267.589 395.238,267.201 395.598,267.446 395.599 C 268.474 395.602,271.227 392.694,270.697 392.164 C 270.605 392.072,270.324 392.448,270.073 392.999 " stroke="none" fill="#ec5454" fill-rule="evenodd"></path></g></svg>